<?xml version="1.0" encoding="UTF-8" standalone="no"?>
<svg
   xmlns:dc="http://purl.org/dc/elements/1.1/"
   xmlns:cc="http://creativecommons.org/ns#"
   xmlns:rdf="http://www.w3.org/1999/02/22-rdf-syntax-ns#"
   xmlns:svg="http://www.w3.org/2000/svg"
   xmlns="http://www.w3.org/2000/svg"
   xmlns:sodipodi="http://sodipodi.sourceforge.net/DTD/sodipodi-0.dtd"
   xmlns:inkscape="http://www.inkscape.org/namespaces/inkscape"
   version="1.1"
   id="svg2"
   xml:space="preserve"
   width="2000"
   height="2000"
   viewBox="0 0 2000 2000"
   sodipodi:docname="Silkster color Black Background RGB.eps"><metadata
     id="metadata8"><rdf:RDF><cc:Work
         rdf:about=""><dc:format>image/svg+xml</dc:format><dc:type
           rdf:resource="http://purl.org/dc/dcmitype/StillImage" /></cc:Work></rdf:RDF></metadata><defs
     id="defs6" /><sodipodi:namedview
     pagecolor="#ffffff"
     bordercolor="#666666"
     borderopacity="1"
     objecttolerance="10"
     gridtolerance="10"
     guidetolerance="10"
     inkscape:pageopacity="0"
     inkscape:pageshadow="2"
     inkscape:window-width="640"
     inkscape:window-height="480"
     id="namedview4" /><g
     id="g10"
     inkscape:groupmode="layer"
     inkscape:label="ink_ext_XXXXXX"
     transform="matrix(1.3333333,0,0,-1.3333333,0,2000)"><g
       id="g12"
       transform="scale(0.1)"><path
         d="M 15000,0 H 0 V 15000 H 15000 V 0"
         style="fill:#000000;fill-opacity:1;fill-rule:nonzero;stroke:none"
         id="path14" /><path
         d="m 9301.8,9625.3 c -0.01,52.66 -57.13,85.47 -102.62,58.95 L 8643.1,9360.14 v 0 l 9.39,-839.17 c 0.6,-52.97 -56.76,-86.39 -102.55,-59.75 l -491.09,285.65 c -27.88,16.22 -150.91,79.48 -242.16,126.11 4.06,-19.11 6.58,-38.8 7.21,-59 0.92,-29.78 -2.18,-58.77 -8.7,-86.49 l 873.91,-505.15 c 45.8,-26.63 103.16,6.79 102.57,59.76 l -11.21,1000.12 v 0 l 282.26,164.51 c 45.49,26.52 102.61,-6.29 102.62,-58.95 l 0.28,-1408.34 c 0.01,-24.29 12.92,-46.74 33.91,-58.96 v -0.01 c 45.51,-26.49 102.6,6.34 102.59,59 l -0.33,1645.83"
         style="fill:#f37727;fill-opacity:1;fill-rule:nonzero;stroke:none"
         id="path16" /><path
         d="m 8604.94,9559.34 c 46.07,26.6 45.35,93.35 -1.29,118.94 l -877.1,481.32 -0.69,300.2 c -0.12,52.7 56.88,85.6 102.44,59.3 l 1186.08,-686.71 c 21.2,-12.28 47.36,-12.24 68.54,0.09 45.27,26.36 45.19,91.79 -0.15,118.04 l -1391.51,805.58 c -45.56,26.4 -102.56,-6.6 -102.44,-59.2 l 1.42,-618.1 735.2,-403.54 c 46.63,-25.59 47.36,-92.33 1.29,-118.93 L 7830.82,9270 c -27.92,-16.12 -151.68,-91.74 -243,-147.7 48.5,-14.8 92.47,-40.38 128.95,-74.08 l 888.17,511.12"
         style="fill:#f05f24;fill-opacity:1;fill-rule:nonzero;stroke:none"
         id="path18" /><path
         d="m 7167.9,8884.9 -878.78,510.49 c -46.16,26.95 -103.98,-7.22 -102.63,-60.65 l 25.26,-1006.84 -274.77,-160 c -45.5,-26.5 -102.59,6.33 -102.59,58.98 l 0.16,1398.31 c 0,24.29 -12.91,46.76 -33.9,58.98 -45.5,26.5 -102.59,-6.32 -102.6,-58.97 l -0.18,-1635.78 c -0.01,-52.65 57.09,-85.48 102.59,-58.98 l 549.77,320.14 c 0,0.01 0.01,0.01 0.01,0.01 l -21.16,842.84 c -1.34,53.44 56.48,87.6 102.64,60.66 l 496.9,-290.1 c 27.34,-15.96 146.53,-81.53 236.74,-131.02 -4.23,19.67 -6.79,39.85 -7.42,60.39 -0.98,31.6 2.59,62.29 9.96,91.54"
         style="fill:#ffc92b;fill-opacity:1;fill-rule:nonzero;stroke:none"
         id="path20" /><path
         d="m 7262.5,8561.19 -865.49,-510.83 c -45.75,-26.72 -44.94,-93.11 1.45,-118.7 l 868.32,-479.03 -1.9,-310.25 c -0.32,-52.34 -57.01,-84.85 -102.35,-58.69 l -1189.86,686.46 c -21.19,12.23 -47.31,12.17 -68.45,-0.14 v 0 c -45.31,-26.38 -45.18,-91.89 0.24,-118.09 l 1393.13,-803.74 c 45.34,-26.15 102.03,6.36 102.35,58.7 l 3.57,583.26 c 0.17,26.38 -14.12,50.74 -37.22,63.48 l -691.37,381.41 c -46.39,25.6 -47.2,91.98 -1.45,118.7 l 490.58,286.48 c 27.77,16.22 140.49,90.8 224.13,146.47 -46.23,14.94 -88.98,39.99 -125.43,74.26 -0.09,0.08 -0.17,0.17 -0.25,0.25"
         style="fill:#faac28;fill-opacity:1;fill-rule:nonzero;stroke:none"
         id="path22" /><path
         d="m 7582.19,7483.3 c 0.14,-52.98 57.97,-85.6 103.38,-58.32 l 850.34,510.72 h 0.01 l 273.21,-158.92 c 45.3,-26.35 45.23,-91.8 -0.11,-118.06 L 7607.63,6962.96 c -21.03,-12.18 -33.99,-34.61 -34.05,-58.91 v 0 c -0.12,-52.64 56.89,-85.59 102.45,-59.21 l 1404.9,813.62 c 45.35,26.26 45.41,91.71 0.12,118.05 l -546.24,317.75 h -0.01 l -713.39,-428.47 c -45.42,-27.28 -103.24,5.34 -103.39,58.32 l -1.56,568.1 c -0.08,31.24 -1.66,162.37 -2.93,263.93 -37.64,-33.91 -83.06,-59.39 -133.39,-73.39 l 2.05,-999.45"
         style="fill:#f69127;fill-opacity:1;fill-rule:nonzero;stroke:none"
         id="path24" /><path
         d="m 7398.09,10133.5 c -0.04,53 -57.8,85.7 -103.27,58.5 l -851.37,-509.1 -261.02,151.98 c -45.31,26.39 -45.18,91.9 0.25,118.1 l 1191.55,687.22 c 21.09,12.1 34.1,34.6 34.15,59 v 0 c 0.12,52.5 -56.78,85.5 -102.34,59.2 L 5910.45,9953.55 c -45.43,-26.2 -45.56,-91.71 -0.25,-118.1 l 534.17,-311.05 v 0 l 714.15,427.08 c 45.47,27.2 103.23,-5.53 103.28,-58.51 l 0.48,-568.1 c 0.02,-32.27 4.18,-170.26 7.4,-272.38 36.7,32.69 80.69,57.44 129.35,71.41 l -0.94,1009.6"
         style="fill:#ffe42c;fill-opacity:1;fill-rule:nonzero;stroke:none"
         id="path26" /><path
         d="m 7497.13,8602.57 c -53.62,-1.78 -104.87,17.69 -144.02,54.5 -39.16,36.8 -61.64,86.66 -63.3,140.38 -3.44,110.89 83.98,203.9 194.87,207.33 111.13,3.6 203.89,-83.99 207.35,-194.88 3.42,-110.89 -84.01,-203.89 -194.9,-207.33 z m 326.77,211.41 c -0.63,20.2 -3.15,39.89 -7.21,59 -14.6,68.72 -50.32,129.43 -99.92,175.24 -36.48,33.7 -80.45,59.28 -128.95,74.08 -33.88,10.34 -69.92,15.5 -107.22,14.35 -28.25,-0.87 -55.57,-5.29 -81.57,-12.75 -48.66,-13.97 -92.65,-38.72 -129.35,-71.41 -49.23,-43.85 -85.26,-101.99 -101.78,-167.59 -7.37,-29.25 -10.94,-59.94 -9.96,-91.54 0.63,-20.54 3.19,-40.72 7.42,-60.39 14.05,-65.38 47.41,-124.95 97.14,-171.78 0.08,-0.08 0.16,-0.17 0.25,-0.25 36.45,-34.27 79.2,-59.32 125.43,-74.26 32.73,-10.59 67.19,-16.14 102.45,-16.14 3.52,0 7.05,0.05 10.58,0.16 27.3,0.85 53.71,5.04 78.93,12.05 50.33,14 95.75,39.48 133.39,73.39 49.77,44.83 85.9,104.31 101.67,171.35 6.52,27.72 9.62,56.71 8.7,86.49"
         style="fill:#ee4625;fill-opacity:1;fill-rule:nonzero;stroke:none"
         id="path28" /><path
         d="m 7487.88,8904.18 c -53.99,-1.67 -96.4,-46.8 -94.73,-100.79 1.67,-53.99 46.79,-96.41 100.79,-94.73 53.99,1.67 96.4,46.79 94.73,100.78 -1.67,54 -46.8,96.41 -100.79,94.74"
         style="fill:#ed3724;fill-opacity:1;fill-rule:nonzero;stroke:none"
         id="path30" /><path
         d="m 3536.33,5395.25 c -75.67,24.11 -142.29,36.16 -199.84,36.16 -64.28,0 -115.18,-12.05 -152.65,-36.16 -37.51,-24.11 -56.23,-57.59 -56.23,-100.42 0,-38.86 13.05,-71.3 39.16,-97.41 26.11,-26.12 58.9,-47.55 98.41,-64.28 39.48,-16.76 93.39,-35.14 161.68,-55.23 95.07,-28.12 173.05,-56.24 233.99,-84.31 60.92,-28.2 112.79,-69.7 155.66,-124.6 42.84,-54.9 64.27,-127.2 64.27,-216.9 0,-85.7 -23.1,-160.4 -69.3,-223.9 -46.19,-63.6 -109.8,-112.2 -190.8,-145.6 -81.03,-33.5 -173.73,-50.3 -278.17,-50.3 -109.81,0 -216.92,20.4 -321.36,61.3 -104.44,40.8 -195.51,95.4 -273.15,163.7 l 112.48,229 c 70.95,-65.7 150.63,-117.2 239,-154.7 88.38,-37.5 170.73,-56.2 247.04,-56.2 74.98,0 133.88,14.3 176.76,43.1 42.82,28.8 64.26,68 64.26,117.5 0,40.2 -13.05,73.4 -39.16,99.5 -26.12,26.1 -59.25,47.2 -99.42,63.2 -40.17,16.1 -95.09,34.2 -164.7,54.3 -95.09,28.1 -172.73,55.5 -232.98,82.3 -60.25,26.8 -111.81,67.3 -154.65,121.52 -42.87,54.23 -64.28,125.53 -64.28,213.91 0,81.65 21.75,152.95 65.28,213.9 43.5,60.91 105.1,108.11 184.78,141.59 79.65,33.46 171.72,50.22 276.16,50.22 91.04,0 181.08,-13.4 270.15,-40.17 89.03,-26.81 168.36,-62.96 238,-108.46 l -108.45,-234.99 c -72.31,44.19 -146.31,78.32 -221.94,102.43"
         style="fill:#ed3724;fill-opacity:1;fill-rule:nonzero;stroke:none"
         id="path32" /><path
         d="m 4135.84,5654.35 h 269.13 V 4248.4 h -269.13 v 1405.95"
         style="fill:#ee4625;fill-opacity:1;fill-rule:nonzero;stroke:none"
         id="path34" /><path
         d="m 4750.43,5654.35 h 269.14 V 4491.4 h 606.55 v -243 h -875.69 v 1405.95"
         style="fill:#f05f24;fill-opacity:1;fill-rule:nonzero;stroke:none"
         id="path36" /><path
         d="M 7092.28,4248.4 H 6768.92 L 6327.05,4851 6106.12,4607.9 v -359.5 h -269.14 v 1405.95 h 269.14 V 4953.4 l 634.67,700.95 h 317.35 l -540.29,-594.51 574.43,-811.44"
         style="fill:#f37727;fill-opacity:1;fill-rule:nonzero;stroke:none"
         id="path38" /><path
         d="m 7956.92,5395.25 c -75.66,24.11 -142.29,36.16 -199.83,36.16 -64.28,0 -115.18,-12.05 -152.65,-36.16 -37.5,-24.11 -56.23,-57.59 -56.23,-100.42 0,-38.86 13.06,-71.3 39.15,-97.41 26.13,-26.12 58.91,-47.55 98.41,-64.28 39.48,-16.76 93.39,-35.14 161.7,-55.23 95.06,-28.12 173.05,-56.24 233.99,-84.31 60.9,-28.2 112.79,-69.7 155.64,-124.6 42.84,-54.9 64.28,-127.2 64.28,-216.9 0,-85.7 -23.1,-160.4 -69.29,-223.9 -46.2,-63.6 -109.8,-112.2 -190.81,-145.6 -81.04,-33.5 -173.74,-50.3 -278.17,-50.3 -109.8,0 -216.93,20.4 -321.36,61.3 -104.43,40.8 -195.51,95.4 -273.15,163.7 l 112.48,229 c 70.94,-65.7 150.64,-117.2 239.01,-154.7 88.38,-37.5 170.72,-56.2 247.03,-56.2 74.99,0 133.88,14.3 176.76,43.1 42.83,28.8 64.25,68 64.25,117.5 0,40.2 -13.04,73.4 -39.15,99.5 -26.11,26.1 -59.26,47.2 -99.43,63.2 -40.16,16.1 -95.07,34.2 -164.68,54.3 -95.09,28.1 -172.74,55.5 -232.98,82.3 -60.26,26.8 -111.82,67.3 -154.66,121.52 -42.87,54.23 -64.28,125.53 -64.28,213.91 0,81.65 21.75,152.95 65.28,213.9 43.5,60.91 105.11,108.11 184.79,141.59 79.63,33.46 171.71,50.22 276.14,50.22 91.04,0 181.08,-13.4 270.15,-40.17 89.03,-26.81 168.38,-62.96 238,-108.46 l -108.44,-234.99 c -72.31,44.19 -146.31,78.32 -221.95,102.43"
         style="fill:#f69127;fill-opacity:1;fill-rule:nonzero;stroke:none"
         id="path40" /><path
         d="M 8399.77,5654.35 H 9546.62 V 5415.33 H 9108.77 V 4248.4 h -271.13 v 1166.93 h -437.87 v 239.02"
         style="fill:#faac28;fill-opacity:1;fill-rule:nonzero;stroke:none"
         id="path42" /><path
         d="m 9737.43,5654.35 h 1030.37 v -234.99 h -761.2 v -347.47 h 682.8 V 4836.9 h -682.8 v -353.5 h 785.3 v -235 H 9737.43 v 1405.95"
         style="fill:#ffc92b;fill-opacity:1;fill-rule:nonzero;stroke:none"
         id="path44" /><path
         d="m 11334.2,4899.2 h 317.3 c 101.7,0 179.4,22.1 233,66.2 53.5,44.22 80.3,109.82 80.3,196.86 0,85.68 -26.8,149.95 -80.3,192.82 -53.6,42.84 -131.3,64.28 -233,64.28 h -317.3 z m 610.5,-650.8 -243,415.8 c -10.7,-1.4 -27.5,-2 -50.2,-2 h -317.3 V 4248.4 H 11065 v 1405.95 h 586.5 c 182.1,0 322.7,-42.19 421.8,-126.54 99,-84.35 148.6,-203.55 148.6,-357.51 0,-109.81 -23.8,-203.5 -71.3,-281.2 -47.6,-77.7 -116.8,-135.9 -207.9,-174.7 l 309.3,-466 h -307.3"
         style="fill:#ffe42c;fill-opacity:1;fill-rule:nonzero;stroke:none"
         id="path46" /></g></g></svg>
